<svg 
 xmlns="http://www.w3.org/2000/svg"
 xmlns:xlink="http://www.w3.org/1999/xlink"
 width="28px" height="28px">
<path fill-rule="evenodd"  fill="rgb(255, 255, 255)"
 d="M13.999,27.999 C6.266,27.999 -0.001,21.731 -0.001,13.999 C-0.001,6.268 6.266,-0.001 13.999,-0.001 C21.730,-0.001 27.999,6.268 27.999,13.999 C27.999,21.731 21.730,27.999 13.999,27.999 ZM17.627,13.157 L13.039,7.317 C12.568,6.862 11.802,6.862 11.331,7.317 C10.860,7.771 10.860,8.505 11.331,8.961 L15.274,13.980 L11.331,19.001 C10.860,19.454 10.860,20.189 11.331,20.644 C11.802,21.096 12.568,21.096 13.039,20.644 L17.627,14.802 C18.100,14.349 18.100,13.612 17.627,13.157 Z"/>
</svg>
