<svg 
 xmlns="http://www.w3.org/2000/svg"
 xmlns:xlink="http://www.w3.org/1999/xlink"
 width="38px" height="34px">
<path fill-rule="evenodd"  fill="rgb(255, 255, 255)"
 d="M29.363,17.143 C27.480,17.143 25.666,16.529 24.180,15.419 C22.696,16.529 20.880,17.143 18.998,17.143 C17.115,17.143 15.301,16.529 13.817,15.419 C12.331,16.529 10.517,17.143 8.634,17.143 C3.875,17.143 -0.001,13.298 -0.001,8.573 C-0.001,3.847 3.875,-0.002 8.634,-0.002 L29.363,-0.002 C34.123,-0.002 37.997,3.844 37.997,8.568 C37.997,13.294 34.123,17.143 29.363,17.143 ZM29.363,3.430 L8.634,3.430 C5.775,3.430 3.452,5.736 3.452,8.573 C3.452,11.409 5.776,13.716 8.634,13.716 C9.952,13.716 11.200,13.188 12.159,12.294 C12.134,12.177 12.088,12.068 12.088,11.944 L12.088,10.285 C12.088,9.338 12.861,8.570 13.817,8.570 C14.773,8.570 15.544,9.338 15.544,10.285 L15.544,11.944 C15.544,12.068 15.499,12.177 15.473,12.293 C16.433,13.188 17.681,13.716 18.999,13.716 C20.316,13.716 21.565,13.188 22.523,12.292 C22.498,12.176 22.453,12.068 22.453,11.944 L22.453,10.285 C22.453,9.338 23.226,8.570 24.180,8.570 C25.135,8.570 25.909,9.338 25.909,10.285 L25.909,11.944 C25.909,12.068 25.863,12.177 25.838,12.293 C26.797,13.188 28.045,13.716 29.363,13.716 C32.221,13.716 34.543,11.408 34.543,8.573 C34.543,5.736 32.221,3.430 29.363,3.430 ZM25.906,25.570 L25.906,22.998 C25.906,22.051 26.677,21.284 27.633,21.284 C28.588,21.284 29.363,22.051 29.363,22.998 L29.363,25.569 C29.363,26.518 28.588,27.285 27.633,27.285 C26.677,27.285 25.906,26.518 25.906,25.570 ZM3.450,18.999 C4.408,18.999 5.179,19.766 5.179,20.714 L5.179,28.832 C5.179,29.792 5.965,30.572 6.932,30.572 L31.062,30.572 C32.031,30.572 32.814,29.792 32.814,28.832 L32.814,20.714 C32.814,19.767 33.589,18.999 34.543,18.999 C35.500,18.999 36.273,19.766 36.273,20.714 L36.273,28.832 C36.273,31.681 33.932,34.000 31.064,34.000 L6.933,34.000 C4.065,34.000 1.724,31.681 1.724,28.828 L1.724,20.714 C1.724,19.767 2.496,18.999 3.450,18.999 Z"/>
</svg>
