<svg 
 xmlns="http://www.w3.org/2000/svg"
 xmlns:xlink="http://www.w3.org/1999/xlink"
 width="38px" height="36px">
<path fill-rule="evenodd"  fill="rgb(7, 15, 33)"
 d="M0.004,31.889 L0.004,5.976 C0.004,3.711 1.846,1.873 4.119,1.873 L9.360,1.873 L9.360,1.687 C9.360,0.761 10.114,0.010 11.042,0.010 L11.042,0.010 C11.973,0.010 12.727,0.761 12.727,1.687 L12.727,1.873 L25.263,1.873 L25.263,1.687 C25.263,0.761 26.017,0.010 26.948,0.010 L26.948,0.010 C27.877,0.010 28.630,0.761 28.630,1.687 L28.630,1.873 L33.869,1.873 C36.144,1.873 37.986,3.711 37.986,5.976 L37.986,31.889 C37.986,34.155 36.144,35.991 33.869,35.991 L4.119,35.991 C1.846,35.991 0.004,34.155 0.004,31.889 ZM34.619,31.859 L34.619,12.687 L3.371,12.687 L3.371,31.859 C3.371,32.288 3.720,32.636 4.151,32.636 L33.839,32.636 C34.271,32.636 34.619,32.288 34.619,31.859 ZM34.619,9.332 L34.619,6.006 C34.619,5.577 34.271,5.229 33.839,5.229 L28.630,5.229 L28.630,6.347 C28.630,7.275 27.877,8.025 26.948,8.025 L26.948,8.025 C26.017,8.025 25.263,7.275 25.263,6.347 L25.263,5.229 L12.727,5.229 L12.727,6.347 C12.727,7.275 11.973,8.025 11.042,8.025 L11.042,8.025 C10.114,8.025 9.360,7.275 9.360,6.347 L9.360,5.229 L4.151,5.229 C3.720,5.229 3.371,5.577 3.371,6.006 L3.371,9.332 L34.619,9.332 Z"/>
<path fill-rule="evenodd"  fill="rgb(255, 52, 25)"
 d="M18.181,28.595 C17.732,28.595 17.309,28.420 16.992,28.103 L11.973,23.103 C11.655,22.788 11.480,22.365 11.480,21.916 C11.480,21.468 11.655,21.047 11.973,20.730 C12.290,20.414 12.715,20.239 13.164,20.239 C13.613,20.239 14.037,20.414 14.354,20.730 L18.112,24.476 L24.645,17.174 C24.973,16.845 25.397,16.670 25.846,16.670 C26.295,16.670 26.718,16.845 27.037,17.162 C27.354,17.478 27.530,17.901 27.530,18.348 C27.530,18.795 27.354,19.217 27.037,19.534 L19.383,28.091 C19.054,28.420 18.631,28.595 18.181,28.595 Z"/>
</svg>
