<svg 
 xmlns="http://www.w3.org/2000/svg"
 xmlns:xlink="http://www.w3.org/1999/xlink"
 width="29px" height="27px">
<path fill-rule="evenodd"  fill="rgb(7, 15, 33)"
 d="M28.553,19.139 L28.594,19.075 L28.632,19.012 C29.071,18.268 28.953,17.298 28.356,16.696 C27.963,16.298 27.437,16.101 26.898,16.152 L2.852,16.152 C1.875,16.094 1.042,16.889 0.984,17.930 C0.931,18.972 1.677,19.863 2.651,19.919 C2.716,19.923 2.783,19.923 2.852,19.919 L22.649,19.919 L18.935,23.760 C18.241,24.454 18.202,25.617 18.857,26.358 C18.882,26.384 18.905,26.412 18.935,26.439 C19.655,27.175 20.791,27.175 21.513,26.439 L28.291,19.436 C28.386,19.346 28.474,19.245 28.553,19.139 L28.553,19.139 ZM1.188,8.377 L1.160,8.453 C1.149,8.474 1.142,8.499 1.137,8.524 C1.137,8.528 1.137,8.536 1.137,8.541 C1.137,8.565 1.137,8.586 1.116,8.609 L1.116,8.628 C1.116,8.649 1.116,8.674 1.102,8.695 C1.102,8.704 1.102,8.711 1.102,8.718 L1.102,8.790 C1.102,8.796 1.102,8.805 1.102,8.812 L1.102,8.889 C1.102,8.915 1.102,8.889 1.102,8.889 C1.096,8.982 1.096,9.077 1.102,9.173 L1.102,9.258 C1.162,9.864 1.489,10.399 1.991,10.699 L2.058,10.736 L2.077,10.736 L2.135,10.766 L2.158,10.766 L2.215,10.789 L2.246,10.789 L2.297,10.812 L2.326,10.812 L2.382,10.829 L2.414,10.829 L2.472,10.842 L27.125,10.842 C28.099,10.905 28.934,10.106 28.985,9.065 C29.043,8.025 28.296,7.134 27.322,7.077 C27.255,7.072 27.190,7.072 27.125,7.077 L7.321,7.077 L11.048,3.227 C11.738,2.533 11.768,1.367 11.118,0.626 C11.097,0.598 11.070,0.572 11.048,0.547 C10.324,-0.190 9.186,-0.190 8.464,0.547 L1.619,7.612 C1.477,7.762 1.357,7.936 1.267,8.131 C1.248,8.213 1.225,8.298 1.188,8.377 Z"/>
</svg>
