<svg 
 xmlns="http://www.w3.org/2000/svg"
 xmlns:xlink="http://www.w3.org/1999/xlink"
 width="35px" height="40px">
<path fill-rule="evenodd"  fill="rgb(7, 15, 33)"
 d="M35.010,26.142 C35.009,28.884 33.602,31.438 31.337,32.810 L21.173,38.967 C20.058,39.642 18.787,40.000 17.499,40.000 C16.212,40.000 14.944,39.643 13.829,38.969 L3.669,32.818 C1.406,31.448 0.001,28.894 0.001,26.153 L0.004,13.845 C0.006,11.103 1.413,8.549 3.676,7.178 L13.842,1.019 C14.957,0.343 16.228,-0.013 17.515,-0.013 C18.802,-0.013 20.070,0.342 21.185,1.017 L31.346,7.168 C33.609,8.539 35.014,11.093 35.014,13.833 L35.010,26.142 ZM29.569,10.439 L19.362,4.260 C18.801,3.920 18.160,3.739 17.512,3.739 C16.864,3.739 16.223,3.920 15.661,4.261 L5.451,10.445 C4.308,11.137 3.598,12.429 3.598,13.813 L3.593,26.177 C3.593,27.563 4.303,28.852 5.446,29.544 L15.652,35.723 C16.212,36.063 16.853,36.243 17.501,36.243 C18.149,36.243 18.790,36.063 19.354,35.722 L29.564,29.535 C30.707,28.844 31.416,27.553 31.418,26.168 L31.421,13.805 C31.421,12.419 30.712,11.130 29.569,10.439 ZM21.447,26.944 L21.336,27.005 C17.626,29.185 12.813,27.915 10.607,24.170 C8.371,20.367 9.596,15.425 13.336,13.156 L13.439,13.094 C17.159,10.914 21.976,12.184 24.177,15.930 L24.244,16.038 C26.427,19.829 25.177,24.722 21.447,26.944 ZM21.222,17.880 C20.018,15.727 17.387,14.987 15.323,16.179 L15.120,15.967 L15.261,16.210 C13.220,17.407 12.493,20.079 13.646,22.172 C14.809,24.294 17.455,25.057 19.547,23.878 C19.549,23.876 19.549,23.876 19.549,23.876 C21.645,22.647 22.368,19.974 21.222,17.880 Z"/>
</svg>
