<svg 
 xmlns="http://www.w3.org/2000/svg"
 xmlns:xlink="http://www.w3.org/1999/xlink"
 width="80px" height="30px">
<path fill-rule="evenodd"  fill="rgb(255, 255, 255)"
 d="M13.500,30.000 C12.273,30.000 11.045,28.824 10.432,26.471 L0.000,0.002 L7.978,0.002 L15.342,18.236 L27.001,0.002 L35.593,0.002 L17.797,26.471 C15.955,29.412 14.727,30.000 13.500,30.000 ZM33.040,30.009 L37.942,-0.006 L45.583,-0.006 L40.680,30.009 L33.040,30.009 ZM79.775,11.404 C79.159,14.405 77.926,17.406 74.845,19.806 C72.381,21.607 69.299,22.807 66.220,22.807 L53.278,22.807 L52.046,30.009 L44.651,30.009 L47.117,15.005 L68.067,15.005 C69.299,15.005 69.916,14.405 70.532,13.805 C71.148,13.205 71.765,12.005 71.765,11.404 C71.765,10.204 71.765,9.604 71.148,9.004 C70.532,8.404 69.299,7.803 68.683,7.803 L47.733,7.803 L53.895,0.002 L69.299,0.002 C72.381,0.002 75.461,1.203 77.310,3.003 C79.775,6.003 80.392,9.004 79.775,11.404 L79.775,11.404 Z"/>
</svg>
