<svg 
 xmlns="http://www.w3.org/2000/svg"
 xmlns:xlink="http://www.w3.org/1999/xlink"
 width="34px" height="34px">
<defs>
<linearGradient id="PSgrad_0" x1="0%" x2="100%" y1="0%" y2="0%">
  <stop offset="0%" stop-color="rgb(242,231,203)" stop-opacity="1" />
  <stop offset="100%" stop-color="rgb(240,219,185)" stop-opacity="1" />
</linearGradient>

</defs>
<path fill-rule="evenodd"  fill="url(#PSgrad_0)"
 d="M16.998,33.999 C7.608,33.999 -0.003,26.386 -0.003,16.998 C-0.003,7.609 7.608,-0.002 16.998,-0.002 C26.387,-0.002 33.998,7.609 33.998,16.998 C33.998,26.386 26.387,33.999 16.998,33.999 ZM22.589,16.101 L16.371,9.367 C15.828,8.871 14.942,8.871 14.402,9.367 C13.856,9.862 13.856,10.665 14.402,11.159 L19.792,16.997 L14.402,22.836 C13.856,23.331 13.856,24.134 14.402,24.627 C14.942,25.122 15.828,25.122 16.371,24.627 L22.589,17.892 C23.134,17.398 23.134,16.597 22.589,16.101 Z"/>
</svg>
