<svg 
 xmlns="http://www.w3.org/2000/svg"
 xmlns:xlink="http://www.w3.org/1999/xlink"
 width="49.6px" height="49.6px">
<path fill-rule="evenodd"  stroke="rgb(255, 255, 255)" stroke-width="4px" stroke-linecap="butt" stroke-linejoin="miter" fill-opacity="0" fill="rgb(3, 4, 3)"
 d="M23.799,1.800 C35.950,1.800 45.799,11.650 45.799,23.800 C45.799,35.950 35.950,45.800 23.799,45.800 C11.649,45.800 1.800,35.950 1.800,23.800 C1.800,11.650 11.649,1.800 23.799,1.800 Z"/>
<path fill-rule="evenodd"  stroke="rgb(255, 255, 255)" stroke-width="2px" stroke-linecap="butt" stroke-linejoin="miter" fill="rgb(3, 4, 3)"
 d="M32.017,25.573 L25.569,25.573 L25.569,32.019 C25.569,33.001 24.772,33.795 23.794,33.795 C22.810,33.795 22.016,33.001 22.016,32.019 L22.016,25.573 L15.568,25.573 C14.589,25.573 13.791,24.777 13.791,23.796 C13.791,22.815 14.589,22.020 15.568,22.020 L22.016,22.020 L22.016,15.572 C22.016,14.592 22.810,13.796 23.794,13.796 C24.772,13.796 25.569,14.592 25.569,15.572 L25.569,22.020 L32.017,22.020 C32.998,22.020 33.793,22.815 33.793,23.796 C33.793,24.777 32.998,25.573 32.017,25.573 Z"/>
</svg>
