<svg 
 xmlns="http://www.w3.org/2000/svg"
 xmlns:xlink="http://www.w3.org/1999/xlink"
 width="250px" height="300px"  viewBox="0 0 25 30"  preserveAspectRatio="xMinYMin meet"  >
<path fill-rule="evenodd"  fill="rgb(255, 255, 255)"
 d="M12.494,-0.003 C5.598,0.006 0.009,5.836 -0.006,13.032 C-0.006,19.979 8.930,29.997 12.494,29.997 C16.060,29.997 24.995,19.979 24.995,13.032 C24.981,5.836 19.392,0.006 12.494,-0.003 ZM7.985,12.524 C7.974,10.035 9.984,8.010 12.475,8.000 C14.967,7.988 16.993,9.997 17.003,12.484 C17.014,14.972 15.005,16.998 12.515,17.008 C12.507,17.008 12.501,17.008 12.496,17.008 C10.015,17.006 7.999,15.003 7.985,12.524 Z"/>
</svg>
