<svg 
 xmlns="http://www.w3.org/2000/svg"
 xmlns:xlink="http://www.w3.org/1999/xlink"
 width="38px" height="33px">
<path fill-rule="evenodd"  fill="rgb(71, 72, 77)"
 d="M18.986,26.390 C14.671,26.390 11.158,22.939 11.158,18.695 C11.158,14.449 14.671,10.999 18.986,10.999 C23.301,10.999 26.816,14.449 26.816,18.695 C26.816,22.939 23.301,26.390 18.986,26.390 ZM18.986,13.563 C16.111,13.563 13.769,15.865 13.769,18.695 C13.769,21.524 16.109,23.827 18.986,23.827 C21.862,23.827 24.205,21.524 24.205,18.695 C24.205,15.865 21.862,13.563 18.986,13.563 ZM31.679,32.990 L6.292,32.990 C3.360,32.990 -0.012,30.644 -0.012,26.830 C-0.012,26.830 -0.012,11.212 0.001,10.274 C0.001,5.944 2.876,3.984 6.292,3.951 L8.134,3.951 C8.881,3.951 9.488,4.541 9.488,5.270 C9.488,6.001 8.881,6.590 8.134,6.590 L6.292,6.590 C4.418,6.637 2.769,7.450 2.769,9.223 C2.769,10.284 2.700,26.830 2.700,26.830 C2.700,28.829 4.603,30.351 6.292,30.351 L31.679,30.351 C33.301,30.351 35.274,28.535 35.274,26.830 C35.274,26.830 35.274,10.110 35.290,9.647 C35.318,7.956 33.962,6.590 31.679,6.590 L18.986,6.590 C18.246,6.598 17.639,6.007 17.630,5.270 C17.630,4.541 18.239,3.951 18.986,3.951 L31.679,3.951 C35.456,3.951 37.985,7.343 37.985,10.110 L37.985,26.830 C37.985,30.326 34.682,32.990 31.679,32.990 ZM27.919,10.989 C27.919,9.784 28.924,8.806 30.166,8.806 C31.405,8.806 32.413,9.784 32.413,10.989 C32.413,12.197 31.405,13.175 30.166,13.175 C28.936,13.188 27.932,12.210 27.919,10.989 L27.919,10.989 ZM17.632,1.311 C17.632,2.042 17.026,2.631 16.274,2.631 L10.843,2.631 C10.103,2.637 9.494,2.047 9.485,1.311 C9.485,0.578 10.094,-0.010 10.843,-0.010 L16.273,-0.010 C17.022,-0.010 17.630,0.578 17.630,1.311 L17.632,1.311 Z"/>
</svg>
