<svg 
 xmlns="http://www.w3.org/2000/svg"
 xmlns:xlink="http://www.w3.org/1999/xlink"
 width="28px" height="28px" >
<path fill-rule="evenodd"  fill="rgb(173, 174, 178)"
 d="M4.193,12.111 C4.193,7.726 7.813,4.159 12.251,4.159 C16.694,4.159 20.307,7.726 20.307,12.111 C20.307,16.501 16.694,20.071 12.251,20.071 C7.806,20.071 4.193,16.501 4.193,12.111 ZM24.471,22.259 L21.114,18.971 C22.617,17.083 23.525,14.703 23.525,12.111 C23.525,5.973 18.466,0.973 12.247,0.973 C6.025,0.973 0.972,5.973 0.972,12.111 C0.972,18.254 6.036,23.253 12.247,23.253 C14.686,23.253 16.940,22.474 18.783,21.173 L22.190,24.509 C22.501,24.821 22.914,24.975 23.325,24.975 C23.735,24.975 24.149,24.821 24.460,24.509 C25.100,23.889 25.100,22.887 24.471,22.259 Z"/>
</svg>
