<svg 
 xmlns="http://www.w3.org/2000/svg"
 xmlns:xlink="http://www.w3.org/1999/xlink"
 width="40px" height="12px">
<defs>
<linearGradient id="PSgrad_0" x1="0%" x2="100%" y1="0%" y2="0%">
  <stop offset="0%" stop-color="rgb(247,95,66)" stop-opacity="1" />
  <stop offset="100%" stop-color="rgb(242,42,24)" stop-opacity="1" />
</linearGradient>

</defs>
<path fill-rule="evenodd"  fill="url(#PSgrad_0)"
 d="M19.998,12.001 C13.073,12.001 4.624,9.392 0.746,5.022 C0.147,4.348 -0.109,3.449 0.043,2.556 C0.196,1.658 0.742,0.888 1.537,0.447 L1.688,0.363 C2.121,0.123 2.611,-0.004 3.104,-0.004 C3.956,-0.004 4.780,0.368 5.364,1.016 C8.067,4.014 14.908,5.876 19.998,5.876 C25.088,5.876 31.929,4.014 34.633,1.016 C35.216,0.368 36.040,-0.004 36.892,-0.004 C37.385,-0.004 37.875,0.123 38.308,0.363 L38.458,0.447 C39.256,0.888 39.799,1.658 39.953,2.556 C40.104,3.449 39.849,4.348 39.250,5.022 C35.372,9.392 26.922,12.001 19.998,12.001 Z"/>
</svg>
