<svg 
 xmlns="http://www.w3.org/2000/svg"
 xmlns:xlink="http://www.w3.org/1999/xlink"
 width="38px" height="34px">
<path fill-rule="evenodd"  fill="rgb(255, 255, 255)"
 d="M7.181,33.995 C3.628,33.995 0.739,31.184 0.739,27.730 L0.739,23.275 L0.993,23.275 C1.345,22.700 1.995,22.331 2.708,22.331 C3.418,22.331 4.070,22.700 4.423,23.275 L4.675,23.275 L4.675,27.730 C4.675,29.072 5.802,30.166 7.181,30.166 L30.801,30.166 C32.183,30.166 33.307,29.072 33.307,27.730 L33.307,23.275 L33.573,23.275 C33.943,22.694 34.583,22.331 35.277,22.331 C36.013,22.331 36.645,22.685 36.996,23.275 L37.246,23.275 L37.246,27.730 C37.246,31.184 34.355,33.995 30.801,33.995 L7.181,33.995 ZM1.961,18.909 C0.875,18.909 -0.007,18.050 -0.007,16.996 C-0.007,15.940 0.875,15.082 1.961,15.082 L36.022,15.082 C37.108,15.082 37.991,15.940 37.991,16.996 C37.991,18.050 37.108,18.909 36.022,18.909 L1.961,18.909 ZM35.277,11.658 C34.191,11.658 33.307,10.800 33.307,9.743 L33.307,6.262 C33.307,4.918 32.183,3.824 30.801,3.824 L7.181,3.824 C5.802,3.824 4.675,4.918 4.675,6.262 L4.675,9.743 C4.675,10.800 3.791,11.658 2.708,11.658 C1.621,11.658 0.739,10.800 0.739,9.743 L0.739,6.262 C0.739,2.807 3.628,-0.004 7.181,-0.004 L30.801,-0.004 C34.355,-0.004 37.246,2.807 37.246,6.262 L37.246,9.743 C37.246,10.800 36.363,11.658 35.277,11.658 Z"/>
</svg>
